<?xml version="1.0" encoding="UTF-8"?>
<!-- Generator: visioncortex VTracer 0.6.5 -->
<svg version="1.1" xmlns="http://www.w3.org/2000/svg" width="66" height="72">
<path d="M0,0 L66,0 L66,72 L0,72 Z " fill="#56C1D1" transform="translate(0,0)"/>
<path d="M0,0 L40,0 L41,1 L41,6 L1,6 L-1,4 Z " fill="#233238" transform="translate(13,43)"/>
<path d="M0,0 L7,1 L8,3 L14,5 L20,5 L28,0 L34,0 L39,4 L40,7 L-8,7 L-4,3 Z " fill="#24424B" transform="translate(16,65)"/>
<path d="M0,0 L66,0 L66,72 L63,72 L64,68 L65,2 L2,2 L0,3 Z " fill="#3C7E8A" transform="translate(0,0)"/>
<path d="M0,0 L19,0 L20,5 L18,6 L-1,6 L-1,1 Z " fill="#26363C" transform="translate(13,28)"/>
<path d="M0,0 L19,0 L20,5 L18,6 L-1,6 L-1,1 Z " fill="#27373C" transform="translate(13,13)"/>
<path d="M0,0 L7,1 L11,5 L11,7 L-8,7 L-4,3 Z " fill="#1F252A" transform="translate(16,65)"/>
<path d="M0,0 L5,0 L6,1 L6,12 L1,13 L-1,8 L-1,2 Z " fill="#25343B" transform="translate(46,13)"/>
<path d="M0,0 L7,1 L7,2 L0,3 L-4,7 L-8,6 Z " fill="#2C4F58" transform="translate(16,65)"/>
<path d="M0,0 L5,0 L6,4 L1,5 Z " fill="#284148" transform="translate(46,29)"/>
</svg>
